<?xml version="1.0" encoding="utf-8"?>
<!-- Generator: Adobe Illustrator 23.0.3, SVG Export Plug-In . SVG Version: 6.00 Build 0)  -->
<svg version="1.1" id="Laag_1" xmlns="http://www.w3.org/2000/svg" xmlns:xlink="http://www.w3.org/1999/xlink" x="0px" y="0px"
	 viewBox="0 0 100 100" style="enable-background:new 0 0 100 100;" xml:space="preserve">
<style type="text/css">
	.st0{fill:#F2494C;}
</style>
<path class="st0" d="M97.8,87.2L60.61,50l37.2-37.2c2.93-2.93,2.93-7.68,0-10.61c-2.93-2.93-7.68-2.93-10.61,0L50,39.39L12.8,2.2
	C9.87-0.73,5.13-0.73,2.2,2.2c-2.93,2.93-2.93,7.68,0,10.61L39.39,50L2.2,87.2C0.73,88.66,0,90.58,0,92.5s0.73,3.84,2.2,5.3
	c2.93,2.93,7.68,2.93,10.61,0L50,60.61l37.2,37.2c1.46,1.46,3.38,2.2,5.3,2.2s3.84-0.73,5.3-2.2
	C100.73,94.87,100.73,90.13,97.8,87.2z"/>
</svg>
