<?xml version="1.0" encoding="utf-8"?>
<!-- Generator: Adobe Illustrator 23.0.3, SVG Export Plug-In . SVG Version: 6.00 Build 0)  -->
<svg version="1.1" id="Laag_1" xmlns="http://www.w3.org/2000/svg" xmlns:xlink="http://www.w3.org/1999/xlink" x="0px" y="0px"
	 viewBox="0 0 100 100" style="enable-background:new 0 0 100 100;" xml:space="preserve">
<style type="text/css">
	.st0{fill:#F2494C;}
</style>
<path class="st0" d="M92.5,15h-85C3.36,15,0,11.64,0,7.5C0,3.36,3.36,0,7.5,0h85c4.14,0,7.5,3.36,7.5,7.5
	C100,11.64,96.64,15,92.5,15z"/>
<path class="st0" d="M92.5,57.5h-85C3.36,57.5,0,54.14,0,50c0-4.14,3.36-7.5,7.5-7.5h85c4.14,0,7.5,3.36,7.5,7.5
	C100,54.14,96.64,57.5,92.5,57.5z"/>
<path class="st0" d="M92.5,100h-85C3.36,100,0,96.64,0,92.5C0,88.36,3.36,85,7.5,85h85c4.14,0,7.5,3.36,7.5,7.5
	C100,96.64,96.64,100,92.5,100z"/>
</svg>
