<?xml version="1.0" encoding="utf-8"?>
<!-- Generator: Adobe Illustrator 23.0.3, SVG Export Plug-In . SVG Version: 6.00 Build 0)  -->
<svg version="1.1" id="Laag_1" xmlns="http://www.w3.org/2000/svg" xmlns:xlink="http://www.w3.org/1999/xlink" x="0px" y="0px"
	 viewBox="0 0 500 62" style="enable-background:new 0 0 500 62;" xml:space="preserve">
<style type="text/css">
	.st0{fill:#EF4A4C;}
</style>
<g>
	<path class="st0" d="M12.92,58.57c-4.18-2.51-7.38-6.11-9.6-10.81C1.11,43.07,0,37.52,0,31.12c0-6.4,1.11-11.93,3.33-16.6
		s5.42-8.26,9.6-10.76C17.1,1.25,22.02,0,27.66,0c3.86,0,7.53,0.65,11.02,1.94s6.44,3.16,8.86,5.58c0.81,0.75,1.21,1.59,1.21,2.51
		c0,0.64-0.19,1.18-0.56,1.64c-0.37,0.46-0.79,0.69-1.25,0.69c-0.58,0-1.24-0.29-1.99-0.86c-3.11-2.54-5.94-4.29-8.47-5.27
		s-5.5-1.47-8.9-1.47c-6.97,0-12.38,2.31-16.21,6.92c-3.83,4.61-5.75,11.09-5.75,19.45c0,8.41,1.91,14.93,5.75,19.54
		c3.83,4.61,9.23,6.91,16.21,6.91c3.4,0,6.37-0.49,8.9-1.47c2.54-0.98,5.36-2.74,8.47-5.27c0.86-0.58,1.53-0.87,1.99-0.87
		c0.46,0,0.88,0.23,1.25,0.69c0.37,0.46,0.56,1.01,0.56,1.64c0,0.92-0.4,1.76-1.21,2.51c-2.42,2.42-5.38,4.28-8.86,5.58
		c-3.49,1.3-7.16,1.94-11.02,1.94C22.02,62.33,17.1,61.07,12.92,58.57z"/>
	<path class="st0" d="M81.78,19.28c0.46,0.35,0.69,0.92,0.69,1.73c0,1.44-0.86,2.25-2.59,2.42l-2.59,0.26
		c-4.09,0.4-7.13,1.87-9.12,4.41c-1.99,2.54-2.98,5.5-2.98,8.9v22.39c0,0.86-0.23,1.53-0.69,1.99c-0.46,0.46-1.1,0.69-1.9,0.69
		c-0.81,0-1.46-0.23-1.95-0.69c-0.49-0.46-0.73-1.12-0.73-1.99V21.52c0-0.86,0.24-1.53,0.73-1.99c0.49-0.46,1.14-0.69,1.95-0.69
		c0.75,0,1.35,0.23,1.81,0.69c0.46,0.46,0.69,1.1,0.69,1.9v5.62c2.36-4.96,6.74-7.66,13.14-8.13l1.21-0.09
		C80.54,18.79,81.32,18.93,81.78,19.28z"/>
	<path class="st0" d="M94.87,59.56c-2.91-1.79-5.17-4.32-6.79-7.61c-1.61-3.29-2.42-7.12-2.42-11.5c0-4.38,0.81-8.21,2.42-11.5
		s3.88-5.82,6.79-7.61c2.91-1.79,6.29-2.68,10.16-2.68c3.8,0,7.17,0.89,10.11,2.68c2.94,1.79,5.2,4.32,6.79,7.61
		s2.38,7.12,2.38,11.5c0,4.38-0.79,8.21-2.38,11.5c-1.59,3.29-3.85,5.82-6.79,7.61c-2.94,1.79-6.31,2.68-10.11,2.68
		C101.17,62.24,97.78,61.35,94.87,59.56z M115.23,53.16c2.42-2.94,3.63-7.18,3.63-12.71c0-5.42-1.23-9.64-3.68-12.67
		c-2.45-3.03-5.83-4.54-10.16-4.54c-4.38,0-7.78,1.51-10.2,4.54c-2.42,3.03-3.63,7.25-3.63,12.67c0,5.53,1.18,9.77,3.54,12.71
		s5.76,4.41,10.2,4.41C109.38,57.57,112.81,56.1,115.23,53.16z"/>
	<path class="st0" d="M194.93,18.93c0.69,0,1.3,0.23,1.82,0.69c0.52,0.46,0.78,1.04,0.78,1.73c0,0.12-0.06,0.4-0.17,0.86
		l-14.44,37.69c-0.23,0.63-0.62,1.12-1.17,1.47s-1.14,0.52-1.77,0.52c-0.64,0-1.23-0.17-1.77-0.52c-0.55-0.35-0.94-0.84-1.17-1.47
		l-12.8-33.02l-12.71,33.02c-0.23,0.63-0.62,1.12-1.17,1.47c-0.55,0.35-1.14,0.52-1.77,0.52c-0.64,0-1.23-0.17-1.77-0.52
		c-0.55-0.35-0.94-0.84-1.17-1.47l-14.52-37.6c-0.12-0.35-0.17-0.63-0.17-0.86c0-0.69,0.3-1.3,0.91-1.82
		c0.61-0.52,1.25-0.78,1.95-0.78c1.09,0,1.84,0.55,2.25,1.64l12.62,34.23l13.05-33.97c0.23-0.63,0.61-1.12,1.12-1.47
		c0.52-0.35,1.04-0.52,1.56-0.52c0.58,0,1.11,0.17,1.6,0.52c0.49,0.35,0.85,0.84,1.08,1.47l12.88,33.89l12.79-34.06
		C193.18,19.48,193.9,18.93,194.93,18.93z"/>
	<path class="st0" d="M241.83,0.99c0.49,0.49,0.73,1.14,0.73,1.94V59.3c0,0.81-0.25,1.46-0.73,1.95c-0.49,0.49-1.14,0.73-1.95,0.73
		c-0.81,0-1.44-0.25-1.9-0.73c-0.46-0.49-0.69-1.14-0.69-1.95V53.6c-1.27,2.82-3.14,4.97-5.62,6.44c-2.48,1.47-5.42,2.21-8.82,2.21
		c-3.69,0-6.95-0.91-9.77-2.72c-2.82-1.81-5.02-4.38-6.57-7.69c-1.56-3.31-2.33-7.16-2.33-11.54c0-4.32,0.78-8.11,2.33-11.37
		c1.56-3.25,3.75-5.78,6.57-7.56c2.82-1.79,6.08-2.68,9.77-2.68c3.4,0,6.34,0.73,8.82,2.2c2.48,1.47,4.35,3.62,5.62,6.44V2.94
		c0-0.81,0.23-1.45,0.69-1.94c0.46-0.49,1.09-0.73,1.9-0.73C240.69,0.26,241.34,0.5,241.83,0.99z M233.71,53.12
		c2.39-2.97,3.59-7.19,3.59-12.66c0-5.48-1.18-9.71-3.54-12.71c-2.36-3-5.74-4.5-10.12-4.5c-4.44,0-7.86,1.48-10.29,4.45
		c-2.42,2.97-3.63,7.16-3.63,12.58c0,5.47,1.21,9.73,3.63,12.75c2.42,3.03,5.82,4.54,10.2,4.54
		C227.93,57.57,231.32,56.09,233.71,53.12z"/>
	<path class="st0" d="M289.72,58.57c-4.18-2.51-7.38-6.11-9.6-10.81c-2.22-4.7-3.33-10.24-3.33-16.64c0-6.4,1.11-11.93,3.33-16.6
		s5.42-8.26,9.6-10.76C293.9,1.25,298.81,0,304.46,0c3.86,0,7.53,0.65,11.02,1.94s6.44,3.16,8.86,5.58
		c0.81,0.75,1.21,1.59,1.21,2.51c0,0.64-0.19,1.18-0.56,1.64c-0.37,0.46-0.79,0.69-1.25,0.69c-0.58,0-1.24-0.29-1.99-0.86
		c-3.11-2.54-5.94-4.29-8.47-5.27c-2.54-0.98-5.5-1.47-8.9-1.47c-6.97,0-12.38,2.31-16.21,6.92c-3.83,4.61-5.75,11.09-5.75,19.45
		c0,8.41,1.91,14.93,5.75,19.54c3.83,4.61,9.23,6.91,16.21,6.91c3.4,0,6.37-0.49,8.9-1.47c2.54-0.98,5.36-2.74,8.47-5.27
		c0.86-0.58,1.53-0.87,1.99-0.87c0.46,0,0.88,0.23,1.25,0.69c0.37,0.46,0.56,1.01,0.56,1.64c0,0.92-0.4,1.76-1.21,2.51
		c-2.42,2.42-5.38,4.28-8.86,5.58c-3.49,1.3-7.16,1.94-11.02,1.94C298.81,62.33,293.9,61.07,289.72,58.57z"/>
	<path class="st0" d="M358.58,19.28c0.46,0.35,0.69,0.92,0.69,1.73c0,1.44-0.86,2.25-2.59,2.42l-2.59,0.26
		c-4.09,0.4-7.13,1.87-9.12,4.41c-1.99,2.54-2.98,5.5-2.98,8.9v22.39c0,0.86-0.23,1.53-0.69,1.99c-0.46,0.46-1.1,0.69-1.9,0.69
		c-0.81,0-1.46-0.23-1.95-0.69c-0.49-0.46-0.73-1.12-0.73-1.99V21.52c0-0.86,0.24-1.53,0.73-1.99c0.49-0.46,1.14-0.69,1.95-0.69
		c0.75,0,1.35,0.23,1.81,0.69c0.46,0.46,0.69,1.1,0.69,1.9v5.62c2.36-4.96,6.74-7.66,13.14-8.13l1.21-0.09
		C357.34,18.79,358.11,18.93,358.58,19.28z"/>
	<path class="st0" d="M398.64,53.29c0.37,0.43,0.56,0.94,0.56,1.51c0,1.27-0.98,2.51-2.94,3.72c-4.15,2.48-8.53,3.72-13.14,3.72
		c-6.4,0-11.44-1.93-15.13-5.79c-3.69-3.86-5.53-9.16-5.53-15.91c0-4.32,0.82-8.14,2.46-11.45c1.64-3.31,3.95-5.88,6.91-7.69
		c2.97-1.82,6.38-2.72,10.24-2.72c5.42,0,9.7,1.74,12.84,5.23c3.14,3.49,4.71,8.29,4.71,14.39c0,1.04-0.23,1.8-0.69,2.29
		c-0.46,0.49-1.21,0.74-2.25,0.74h-28.79c0.17,5.3,1.56,9.34,4.15,12.1c2.59,2.77,6.25,4.15,10.98,4.15c2.48,0,4.55-0.33,6.22-1
		c1.67-0.66,3.46-1.54,5.36-2.63c1.27-0.87,2.16-1.3,2.68-1.3S398.27,52.86,398.64,53.29z M372.41,26.8
		c-2.42,2.54-3.86,6.08-4.32,10.63h26.71c-0.12-4.61-1.27-8.17-3.46-10.68c-2.19-2.51-5.27-3.76-9.25-3.76
		C378.05,22.99,374.83,24.26,372.41,26.8z"/>
	<path class="st0" d="M445.58,0.99c0.49,0.49,0.73,1.14,0.73,1.94V59.3c0,0.81-0.25,1.46-0.73,1.95c-0.49,0.49-1.14,0.73-1.95,0.73
		c-0.81,0-1.44-0.25-1.9-0.73c-0.46-0.49-0.69-1.14-0.69-1.95V53.6c-1.27,2.82-3.14,4.97-5.62,6.44c-2.48,1.47-5.42,2.21-8.82,2.21
		c-3.69,0-6.95-0.91-9.77-2.72c-2.82-1.81-5.02-4.38-6.57-7.69c-1.56-3.31-2.33-7.16-2.33-11.54c0-4.32,0.78-8.11,2.33-11.37
		c1.56-3.25,3.75-5.78,6.57-7.56c2.82-1.79,6.08-2.68,9.77-2.68c3.4,0,6.34,0.73,8.82,2.2c2.48,1.47,4.35,3.62,5.62,6.44V2.94
		c0-0.81,0.23-1.45,0.69-1.94c0.46-0.49,1.09-0.73,1.9-0.73C444.44,0.26,445.09,0.5,445.58,0.99z M437.46,53.12
		c2.39-2.97,3.59-7.19,3.59-12.66c0-5.48-1.18-9.71-3.54-12.71c-2.36-3-5.74-4.5-10.12-4.5c-4.44,0-7.86,1.48-10.29,4.45
		c-2.42,2.97-3.63,7.16-3.63,12.58c0,5.47,1.21,9.73,3.63,12.75c2.42,3.03,5.82,4.54,10.2,4.54
		C431.68,57.57,435.07,56.09,437.46,53.12z"/>
	<path class="st0" d="M460.02,8.04c-0.72-0.69-1.08-1.58-1.08-2.68c0-1.15,0.36-2.07,1.08-2.77c0.72-0.69,1.66-1.04,2.81-1.04
		c1.15,0,2.09,0.35,2.81,1.04c0.72,0.69,1.08,1.61,1.08,2.77c0,1.1-0.36,1.99-1.08,2.68c-0.72,0.69-1.66,1.04-2.81,1.04
		C461.68,9.08,460.74,8.73,460.02,8.04z M460.88,61.38c-0.49-0.46-0.73-1.12-0.73-1.99V21.52c0-0.86,0.24-1.53,0.73-1.99
		c0.49-0.46,1.14-0.69,1.95-0.69c0.8,0,1.44,0.23,1.9,0.69c0.46,0.46,0.69,1.12,0.69,1.99v37.86c0,0.86-0.23,1.53-0.69,1.99
		c-0.46,0.46-1.1,0.69-1.9,0.69C462.02,62.07,461.37,61.84,460.88,61.38z"/>
	<path class="st0" d="M500,59.91c0,0.69-0.26,1.24-0.78,1.64c-0.52,0.4-1.35,0.58-2.51,0.52l-2.42-0.17
		c-4.38-0.29-7.62-1.63-9.73-4.02c-2.1-2.39-3.15-6.04-3.15-10.93v-23h-6.57c-0.69,0-1.24-0.19-1.64-0.56
		c-0.4-0.37-0.61-0.88-0.61-1.51c0-0.63,0.2-1.15,0.61-1.56c0.4-0.4,0.95-0.6,1.64-0.6h6.57V8.99c0-0.86,0.23-1.53,0.69-1.99
		s1.09-0.69,1.9-0.69c0.81,0,1.45,0.23,1.94,0.69c0.49,0.46,0.74,1.12,0.74,1.99v10.72h10.46c0.75,0,1.33,0.2,1.73,0.6
		c0.4,0.4,0.61,0.92,0.61,1.56c0,0.64-0.2,1.14-0.61,1.51c-0.4,0.38-0.98,0.56-1.73,0.56h-10.46V47.2c0,3.57,0.69,6.12,2.07,7.65
		c1.38,1.53,3.54,2.41,6.48,2.64l2.34,0.17C499.19,57.83,500,58.58,500,59.91z"/>
</g>
</svg>
